<?xml version="1.0" encoding="utf-8"?>
<!-- Generator: Adobe Illustrator 16.0.0, SVG Export Plug-In . SVG Version: 6.00 Build 0)  -->
<!DOCTYPE svg PUBLIC "-//W3C//DTD SVG 1.1//EN" "http://www.w3.org/Graphics/SVG/1.1/DTD/svg11.dtd">
<svg version="1.1" id="Layer_1" xmlns="http://www.w3.org/2000/svg" xmlns:xlink="http://www.w3.org/1999/xlink" x="0px" y="0px"
	 width="365px" height="130px" viewBox="0 0 365 130" enable-background="new 0 0 365 130" xml:space="preserve">
<rect fill="#FD0001" width="130.154" height="130.152"/>
<polygon fill="#FFFFFF" points="24.453,24.947 33.017,24.947 33.017,96.289 45.728,96.289 45.728,105.145 24.453,105.145 "/>
<polygon fill="#FFFFFF" points="84.198,24.957 105.843,24.957 105.843,33.701 92.762,33.701 92.762,59.413 104.987,59.413 
	104.987,68.77 92.762,68.77 92.762,96.279 105.843,96.279 105.843,105.145 84.198,105.145 "/>
<path fill="#FFFFFF" d="M53.19,105.116v-8.575v-0.199l2.683-0.01c3.523-0.02,9.483-2.473,10.363-8.02
	c0.85-5.377,0.22-9.27-6.687-21.07l-0.092-0.198c-4.81-7.843-9.371-14.694-7.668-25.443c1.85-11.682,10.987-16.829,19.298-16.675
	l2.685-0.003v8.576v0.198l-2.685,0.01c-3.521,0.019-9.648,2.434-10.529,7.982c-0.85,5.375-0.262,8.852,6.467,20.5l0.18,0.298
	c5.001,8.049,9.503,15.166,7.8,25.914c-1.851,11.685-10.818,16.869-19.131,16.716H53.19"/>
<polygon fill="#010101" points="157.812,32.791 154.45,32.791 154.45,31.425 162.724,31.425 162.724,32.791 159.362,32.791 
	159.362,42.235 157.812,42.235 "/>
<polygon fill="#010101" points="164.301,31.422 165.853,31.422 165.853,35.944 171.019,35.944 171.019,31.422 172.568,31.422 
	172.568,42.235 171.019,42.235 171.019,37.311 165.853,37.311 165.853,42.235 164.301,42.235 "/>
<polygon fill="#010101" points="175.442,31.423 181.498,31.423 181.498,32.791 176.991,32.791 176.991,35.943 181.098,35.943 
	181.098,37.31 176.991,37.31 176.991,40.865 181.498,40.865 181.498,42.234 175.442,42.234 "/>
<polygon fill="#010101" points="190.42,24.885 192.914,24.885 192.914,40.057 200.171,40.057 200.171,42.235 190.42,42.235 "/>
<path fill="#010101" d="M201.678,35.033c0,4.372,2.532,7.444,6.938,7.444c4.411,0,6.938-3.073,6.938-7.444
	c0-4.266-2.553-7.443-6.938-7.443C204.229,27.589,201.678,30.767,201.678,35.033 M203.855,35.033c0-2.926,1.57-5.649,4.76-5.628
	c3.188-0.021,4.764,2.702,4.764,5.628c0,2.866-1.432,5.629-4.764,5.629C205.282,40.662,203.855,37.899,203.855,35.033"/>
<polygon fill="#010101" points="218.412,27.83 221.219,27.83 227.611,39.415 227.652,39.415 227.652,27.83 229.712,27.83 
	229.712,42.235 227.07,42.235 220.514,30.372 220.473,30.372 220.473,42.235 218.412,42.235 "/>
<path fill="#010101" d="M233.186,42.236h4.24c4.743,0,7.662-2.498,7.662-7.328c0-4.437-3.396-7.077-7.662-7.077h-4.24V42.236z
	 M235.241,29.646h2.411c2.967,0,5.255,1.982,5.255,5.347c0,3.715-1.955,5.429-5.499,5.429h-2.167V29.646z"/>
<path fill="#010101" d="M247.395,35.033c0,4.372,2.529,7.444,6.938,7.444c4.407,0,6.938-3.073,6.938-7.444
	c0-4.266-2.549-7.443-6.938-7.443C249.943,27.589,247.395,30.767,247.395,35.033 M249.57,35.033c0-2.926,1.576-5.649,4.762-5.628
	c3.184-0.021,4.761,2.702,4.761,5.628c0,2.866-1.428,5.629-4.761,5.629C250.996,40.662,249.57,37.899,249.57,35.033"/>
<polygon fill="#010101" points="264.129,27.83 266.934,27.83 273.325,39.415 273.369,39.415 273.369,27.83 275.425,27.83 
	275.425,42.235 272.786,42.235 266.227,30.372 266.188,30.372 266.188,42.235 264.129,42.235 "/>
<path fill="#010101" d="M292.939,27.502c-1.265-0.497-1.961-0.721-3.26-0.721c-1.396,0-3.041,0.496-3.041,2.31
	c0,3.329,7.463,2.558,7.463,8.269c0,3.697-2.849,5.159-6.34,5.159c-1.225,0-2.41-0.349-3.551-0.72l0.246-2.304
	c0.848,0.348,2.326,0.843,3.604,0.843c1.416,0,3.416-0.794,3.416-2.83c0-3.873-7.465-2.806-7.465-8.194
	c0-3.076,2.426-4.711,5.564-4.711c1.152,0,2.518,0.197,3.704,0.607L292.939,27.502z"/>
<path fill="#010101" d="M306.979,30.208c-0.908-0.536-1.922-0.804-2.977-0.804c-3.324,0-5.537,2.393-5.537,5.628
	c0,3.382,2.438,5.629,5.434,5.629c1.033,0,2.418-0.268,3.141-0.702l0.128,2.003c-1.097,0.453-2.438,0.515-3.288,0.515
	c-4.564,0-7.589-2.93-7.589-7.505c0-4.435,3.211-7.383,7.608-7.383c1.117,0,2.214,0.164,3.246,0.604L306.979,30.208z"/>
<polygon fill="#010101" points="309.697,27.83 311.751,27.83 311.751,33.843 318.652,33.843 318.652,27.83 320.709,27.83 
	320.709,42.235 318.652,42.235 318.652,35.659 311.751,35.659 311.751,42.235 309.697,42.235 "/>
<path fill="#010101" d="M323.698,35.033c0,4.372,2.534,7.444,6.938,7.444c4.412,0,6.939-3.073,6.939-7.444
	c0-4.266-2.554-7.443-6.939-7.443C326.252,27.589,323.698,30.767,323.698,35.033 M325.879,35.033c0-2.926,1.571-5.649,4.76-5.628
	c3.188-0.021,4.762,2.702,4.762,5.628c0,2.866-1.428,5.629-4.762,5.629C327.307,40.662,325.879,37.899,325.879,35.033"/>
<path fill="#010101" d="M339.71,35.033c0,4.372,2.53,7.444,6.938,7.444s6.938-3.073,6.938-7.444c0-4.266-2.552-7.443-6.938-7.443
	C342.26,27.589,339.71,30.767,339.71,35.033 M341.889,35.033c0-2.926,1.573-5.649,4.762-5.628c3.187-0.021,4.763,2.702,4.763,5.628
	c0,2.866-1.431,5.629-4.763,5.629C343.314,40.662,341.889,37.899,341.889,35.033"/>
<polygon fill="#010101" points="356.443,27.83 358.506,27.83 358.506,40.42 364.535,40.42 364.535,42.235 356.443,42.235 "/>
<path fill="#010101" d="M154.518,105.104h2.495v-6.938h2.434c3.127,0,6.122-1.358,6.122-5.215c0-3.955-2.945-5.192-6.496-5.192
	h-4.555V105.104z M157.013,89.932h2.109c1.541,0,3.826,0.799,3.826,2.99c0,2.291-1.937,3.063-3.477,3.063h-2.458V89.932z"/>
<path fill="#010101" d="M167.415,97.902c0,4.369,2.53,7.443,6.939,7.443s6.939-3.074,6.939-7.443c0-4.271-2.551-7.443-6.939-7.443
	S167.415,93.633,167.415,97.902 M169.593,97.902c0-2.928,1.575-5.648,4.762-5.631c3.187-0.02,4.761,2.703,4.761,5.631
	c0,2.863-1.427,5.627-4.761,5.627S169.593,100.768,169.593,97.902"/>
<polygon fill="#010101" points="184.254,90.699 186.313,90.699 186.313,103.289 192.343,103.289 192.343,105.102 184.254,105.102 
	"/>
<rect x="194.665" y="90.702" fill="#010101" width="2.06" height="14.401"/>
<polygon fill="#010101" points="203.313,92.516 198.83,92.516 198.83,90.699 209.854,90.699 209.854,92.516 205.371,92.516 
	205.371,105.104 203.313,105.104 "/>
<rect x="211.979" y="90.702" fill="#010101" width="2.06" height="14.401"/>
<path fill="#010101" d="M227.684,93.077c-0.906-0.535-1.92-0.806-2.978-0.806c-3.325,0-5.535,2.396-5.535,5.631
	c0,3.381,2.437,5.627,5.437,5.627c1.033,0,2.416-0.271,3.138-0.697l0.126,1.999c-1.094,0.451-2.438,0.515-3.283,0.515
	c-4.564,0-7.594-2.928-7.594-7.506c0-4.436,3.211-7.381,7.613-7.381c1.115,0,2.209,0.161,3.242,0.604L227.684,93.077z"/>
<path fill="#010101" d="M228.811,105.104h2.166l1.463-3.633h7.06l1.464,3.633h2.253l-6.09-14.403h-2.166L228.811,105.104z
	 M238.838,99.777H233.1l2.885-7.144L238.838,99.777z"/>
<polygon fill="#010101" points="245.339,90.699 247.396,90.699 247.396,103.289 253.428,103.289 253.428,105.102 245.339,105.102 
	"/>
<path fill="#010101" d="M269.771,90.368c-1.262-0.493-1.955-0.72-3.254-0.72c-1.4,0-3.05,0.496-3.05,2.31
	c0,3.329,7.466,2.56,7.466,8.271c0,3.698-2.847,5.158-6.342,5.158c-1.223,0-2.408-0.348-3.545-0.719l0.245-2.305
	c0.839,0.35,2.326,0.842,3.601,0.842c1.424,0,3.42-0.792,3.42-2.828c0-3.873-7.465-2.809-7.465-8.195
	c0-3.072,2.422-4.712,5.567-4.712c1.146,0,2.519,0.199,3.702,0.606L269.771,90.368z"/>
<path fill="#010101" d="M283.932,93.077c-0.91-0.535-1.923-0.806-2.974-0.806c-3.327,0-5.535,2.396-5.535,5.631
	c0,3.381,2.437,5.627,5.435,5.627c1.033,0,2.416-0.271,3.138-0.697l0.124,1.999c-1.098,0.451-2.438,0.515-3.283,0.515
	c-4.564,0-7.59-2.928-7.59-7.506c0-4.436,3.211-7.381,7.611-7.381c1.113,0,2.211,0.161,3.24,0.604L283.932,93.077z"/>
<rect x="286.673" y="90.702" fill="#010101" width="2.056" height="14.401"/>
<polygon fill="#010101" points="292.538,90.699 300.607,90.699 300.607,92.516 294.596,92.516 294.596,96.71 300.068,96.71 
	300.068,98.527 294.596,98.527 294.596,103.289 300.607,103.289 300.607,105.102 292.538,105.102 "/>
<polygon fill="#010101" points="303.943,90.699 306.751,90.699 313.143,102.282 313.184,102.282 313.184,90.699 315.242,90.699 
	315.242,105.102 312.604,105.102 306.046,93.24 305.998,93.24 305.998,105.102 303.943,105.102 "/>
<path fill="#010101" d="M328.864,93.077c-0.91-0.535-1.925-0.806-2.974-0.806c-3.328,0-5.537,2.396-5.537,5.631
	c0,3.381,2.435,5.627,5.431,5.627c1.034,0,2.419-0.271,3.14-0.697l0.124,1.999c-1.094,0.451-2.437,0.515-3.282,0.515
	c-4.565,0-7.591-2.928-7.591-7.506c0-4.436,3.212-7.381,7.609-7.381c1.114,0,2.211,0.161,3.246,0.604L328.864,93.077z"/>
<polygon fill="#010101" points="331.686,90.699 339.754,90.699 339.754,92.516 333.74,92.516 333.74,96.71 339.217,96.71 
	339.217,98.527 333.74,98.527 333.74,103.289 339.754,103.289 339.754,105.102 331.686,105.102 "/>
<path fill="#010101" d="M154.483,68.208c0,3.272,1.898,5.586,5.208,5.586c3.305,0,5.204-2.313,5.204-5.586
	c0-3.198-1.915-5.586-5.204-5.586C156.399,62.622,154.483,65.01,154.483,68.208 M156.119,68.208c0-2.19,1.179-4.234,3.572-4.216
	c2.39-0.018,3.568,2.025,3.568,4.216c0,2.151-1.072,4.219-3.568,4.219C157.191,72.427,156.119,70.359,156.119,68.208"/>
<polygon fill="#010101" points="168.337,62.805 174.084,62.805 174.084,64.171 169.886,64.171 169.886,67.322 173.898,67.322 
	173.898,68.689 169.886,68.689 169.886,73.613 168.337,73.613 "/>
<polygon fill="#010101" points="185.984,56.266 195.712,56.266 195.712,58.444 188.48,58.444 188.48,63.529 195.066,63.529 
	195.066,65.707 188.48,65.707 188.48,71.439 195.712,71.439 195.712,73.616 185.984,73.616 "/>
<path fill="#010101" d="M211.378,61.589c-0.91-0.536-1.926-0.804-2.976-0.804c-3.326,0-5.533,2.393-5.533,5.628
	c0,3.381,2.436,5.629,5.433,5.629c1.03,0,2.417-0.271,3.138-0.703l0.123,2.003c-1.095,0.452-2.438,0.516-3.285,0.516
	c-4.56,0-7.588-2.928-7.588-7.504c0-4.436,3.211-7.382,7.612-7.382c1.115,0,2.21,0.163,3.242,0.605L211.378,61.589z"/>
<path fill="#010101" d="M215.089,66.413c0,4.37,2.527,7.442,6.938,7.442c4.408,0,6.938-3.072,6.938-7.442
	c0-4.268-2.552-7.443-6.938-7.443C217.641,58.97,215.089,62.146,215.089,66.413 M217.266,66.413c0-2.928,1.573-5.649,4.764-5.628
	c3.187-0.021,4.756,2.7,4.756,5.628c0,2.866-1.428,5.629-4.756,5.629C218.693,72.042,217.266,69.279,217.266,66.413"/>
<polygon fill="#010101" points="233.659,59.212 236.464,59.212 242.857,70.794 242.898,70.794 242.898,59.212 244.959,59.212 
	244.959,73.613 242.318,73.613 235.762,61.753 235.721,61.753 235.721,73.613 233.659,73.613 "/>
<path fill="#010101" d="M249.626,66.413c0,4.37,2.526,7.442,6.938,7.442s6.938-3.072,6.938-7.442c0-4.268-2.552-7.443-6.938-7.443
	C252.178,58.97,249.626,62.146,249.626,66.413 M251.807,66.413c0-2.928,1.571-5.649,4.76-5.628c3.188-0.021,4.76,2.7,4.76,5.628
	c0,2.866-1.428,5.629-4.76,5.629C253.232,72.042,251.807,69.279,251.807,66.413"/>
<polygon fill="#010101" points="268.238,59.212 271.641,59.212 276.165,71.193 280.616,59.212 284.018,59.212 284.018,73.613 
	281.957,73.613 281.957,61.148 281.916,61.148 277.141,73.613 275.116,73.613 270.342,61.148 270.298,61.148 270.298,73.613 
	268.238,73.613 "/>
<rect x="289.52" y="59.212" fill="#010101" width="2.061" height="14.404"/>
<path fill="#010101" d="M306.96,61.589c-0.908-0.536-1.924-0.804-2.976-0.804c-3.326,0-5.534,2.393-5.534,5.628
	c0,3.381,2.438,5.629,5.431,5.629c1.035,0,2.418-0.271,3.141-0.703l0.125,2.003c-1.095,0.452-2.438,0.516-3.285,0.516
	c-4.563,0-7.59-2.928-7.59-7.504c0-4.436,3.213-7.382,7.609-7.382c1.114,0,2.21,0.163,3.245,0.605L306.96,61.589z"/>
<path fill="#010101" d="M317.977,61.382c-1.05-0.411-1.634-0.598-2.711-0.598c-1.162,0-2.537,0.414-2.537,1.921
	c0,2.759,6.211,2.121,6.211,6.863c0,3.067-2.366,4.287-5.275,4.287c-1.018,0-2.002-0.287-2.95-0.601l0.208-1.915
	c0.696,0.288,1.932,0.7,2.991,0.7c1.187,0,2.851-0.66,2.851-2.351c0-3.217-6.216-2.332-6.216-6.804c0-2.557,2.019-3.919,4.634-3.919
	c0.961,0,2.098,0.166,3.082,0.521L317.977,61.382z"/>
<path fill="#010101" d="M329.386,73.613h1.63l1.098-2.723h5.302l1.097,2.723h1.688L335.632,62.8h-1.627L329.386,73.613z
	 M336.914,69.62h-4.307l2.16-5.365L336.914,69.62z"/>
<polygon fill="#010101" points="343.077,62.801 345.188,62.801 349.963,71.518 349.997,71.518 349.997,62.801 351.545,62.801 
	351.545,73.613 349.564,73.613 344.659,64.72 344.625,64.72 344.625,73.613 343.077,73.613 "/>
<path fill="#010101" d="M355.534,73.613h3.188c3.555,0,5.743-1.879,5.743-5.496c0-3.326-2.547-5.313-5.743-5.313h-3.188V73.613z
	 M357.084,64.172h1.809c2.229,0,3.94,1.482,3.94,4.008c0,2.782-1.464,4.067-4.125,4.067h-1.624V64.172L357.084,64.172z"/>
<rect x="350.023" y="90.641" fill="#FD0001" width="14.442" height="14.445"/>
<polyline fill="none" points="389.186,-30.894 -42.907,-30.894 -42.907,154 389.186,154 389.186,-30.894 "/>
</svg>
